<?xml version="1.0" encoding="utf-8"?>
<!-- Generator: Adobe Illustrator 24.2.0, SVG Export Plug-In . SVG Version: 6.00 Build 0)  -->
<svg version="1.1" id="Ebene_1" xmlns="http://www.w3.org/2000/svg" xmlns:xlink="http://www.w3.org/1999/xlink" x="0px" y="0px"
	 viewBox="0 0 1500 1500" style="enable-background:new 0 0 1500 1500;" xml:space="preserve">
<style type="text/css">
	.st0{display:none;fill:#F7F7F7;}
	.st1{display:none;}
	.st2{display:inline;fill:#283C63;}
	.st3{fill:#6069E8;}
	.st4{display:none;fill:#6069E8;}
	.st5{display:none;fill:#4956CE;}
	.st6{fill:none;}
	.st7{fill:#283C63;}
	.st8{font-family:'MyriadHebrew-Bold';}
	.st9{font-size:116px;}
	.st10{letter-spacing:1;}
</style>
<rect class="st0" width="1500" height="1500"/>
<g>
	<g class="st1">
		<path class="st2" d="M500,1099.31h15.92v27.01h24.21v-27.01h15.82v70.15h-15.82v-29.27h-24.21v29.27H500V1099.31z"/>
		<path class="st2" d="M595.12,1114.8c13.45,0,25.93,10.22,25.93,27.98c0,17.75-12.48,27.98-25.93,27.98
			c-13.56,0-26.04-10.22-26.04-27.98C569.08,1125.02,581.56,1114.8,595.12,1114.8z M595.12,1157.95c6.46,0,9.79-5.92,9.79-15.17
			s-3.34-15.17-9.79-15.17c-6.56,0-9.79,5.92-9.79,15.17S588.55,1157.95,595.12,1157.95z"/>
		<path class="st2" d="M632.99,1116.09h12.91l1.08,6.89h0.43c4.41-4.41,9.15-8.18,16.14-8.18c7.53,0,12.05,3.23,14.74,8.93
			c4.73-4.84,9.68-8.93,16.79-8.93c11.51,0,16.68,8.18,16.68,21.52v33.14h-15.82v-31.1c0-7.75-2.04-10.11-6.56-10.11
			c-2.69,0-5.7,1.72-9.15,5.16v36.05h-15.82v-31.1c0-7.75-2.04-10.11-6.56-10.11c-2.58,0-5.7,1.72-9.04,5.16v36.05h-15.82V1116.09z"
			/>
		<path class="st2" d="M748.33,1114.8c15.17,0,22.7,11.08,22.7,25.61c0,2.8-0.32,5.38-0.65,6.67h-31.96
			c1.4,8.07,6.78,11.62,13.88,11.62c3.98,0,7.64-1.18,11.51-3.55l5.27,9.58c-5.49,3.77-12.59,6.03-18.94,6.03
			c-15.28,0-27.01-10.33-27.01-27.98C723.15,1125.45,735.53,1114.8,748.33,1114.8z M757.59,1137.29c0-6.13-2.58-10.44-8.93-10.44
			c-4.95,0-9.25,3.34-10.33,10.44H757.59z"/>
		<path class="st2" d="M814.4,1098.02c8.72,0,16.03,4.3,20.77,9.14l-8.72,9.79c-3.55-3.23-6.89-5.27-11.84-5.27
			c-9.79,0-17.43,8.5-17.43,22.6c0,14.42,6.78,22.81,17,22.81c5.81,0,9.9-2.47,13.34-6.24l8.72,9.58
			c-5.81,6.78-13.56,10.33-22.27,10.33c-18.18,0-33.03-12.37-33.03-35.94C780.93,1111.57,796.32,1098.02,814.4,1098.02z"/>
		<path class="st2" d="M846.57,1094.04h15.82v18.51l-0.75,9.58c3.98-3.55,9.25-7.32,16.46-7.32c11.62,0,16.57,8.18,16.57,21.52
			v33.14h-15.82v-31.1c0-7.75-2.04-10.11-6.56-10.11c-3.98,0-6.46,1.83-9.9,5.16v36.05h-15.82V1094.04z"/>
		<path class="st2" d="M937.16,1135.14c-0.32-4.73-2.69-7.75-8.39-7.75c-4.52,0-9.04,1.83-14.2,4.84l-5.6-10.44
			c6.78-4.09,14.42-6.99,22.81-6.99c13.67,0,21.2,7.75,21.2,24.1v30.56h-12.91l-1.18-5.49h-0.32c-4.52,3.98-9.58,6.78-15.6,6.78
			c-9.68,0-15.82-7.1-15.82-16.14C907.14,1143.42,916.07,1137.29,937.16,1135.14z M928.34,1158.49c3.66,0,6.02-1.72,8.82-4.52v-9.36
			c-11.3,1.51-14.96,4.73-14.96,8.82C922.21,1156.87,924.57,1158.49,928.34,1158.49z"/>
		<path class="st2" d="M969.77,1128.47h-7.32v-11.73l8.18-0.65l1.83-14.2h13.13v14.2h12.8v12.37h-12.8v21.41
			c0,6.03,2.69,8.5,6.89,8.5c1.72,0,3.66-0.54,5.06-1.08l2.47,11.51c-2.8,0.86-6.67,1.94-11.84,1.94c-13.23,0-18.4-8.29-18.4-20.66
			V1128.47z"/>
	</g>
	<g>
		<path class="st3" d="M945.07,512c0,12.22-10,22.22-22.22,22.22h-34.05c-12.22,0-22.22-10-22.22-22.22V388.23
			c0-12.22,10-22.22,22.22-22.22h34.05c12.22,0,22.22,10,22.22,22.22V512z"/>
		<path class="st4" d="M795.53,997.36V880.11h144.33l-125.18,125.18C807.61,1012.35,795.53,1007.35,795.53,997.36z"/>
		<polygon class="st5" points="947.58,872.83 795.53,872.83 795.53,886.88 932.8,886.88 		"/>
		<path class="st3" d="M978.84,525.69l-207.7-207.72c-11.63-11.64-30.65-11.64-42.29,0l-207.7,207.72
			C509.5,537.33,500,560.29,500,576.73v36.59C609.68,694.81,745.52,743,892.63,743c36.6,0,72.43-3.01,107.37-8.74V576.73
			C1000,560.29,990.48,537.33,978.84,525.69z"/>
		<path class="st3" d="M892.63,776.64c-147.1,0-282.95-48.19-392.63-129.69V844.6c0,16.43,13.46,29.9,29.9,29.9h440.2
			c16.43,0,29.9-13.46,29.9-29.9v-76.7C965.05,773.64,929.23,776.64,892.63,776.64z"/>
	</g>
</g>
<rect x="548.35" y="906.41" class="st6" width="400.78" height="87.07"/>
<text transform="matrix(1 0 0 1 548.3503 988.7651)" class="st7 st8 st9 st10">SOFTIN</text>
</svg>
